REM DIRINDEX 1\2,1\3,1\4,1\5
REM DIRNAME folder01,folder02,folder03,folder04,folder05
TITLE ""
FILE "CD2Track02.mp3" MP3
  TRACK 01 AUDIO
    TITLE "5:cjc155_1535"
    INDEX 01 00:00:00
  TRACK 02 AUDIO
    TITLE "0:"
    INDEX 01 00:01:52
  TRACK 03 AUDIO
    TITLE "2:cjc155_1536"
    INDEX 01 00:02:53
  TRACK 04 AUDIO
    TITLE "3:cjc155_1537"
    INDEX 01 00:04:38
  TRACK 05 AUDIO
    TITLE "2:cjc155_1538"
    INDEX 01 00:06:28
  TRACK 06 AUDIO
    TITLE "3:cjc155_1539"
    INDEX 01 00:07:56
  TRACK 07 AUDIO
    TITLE "2:cjc155_1540"
    INDEX 01 00:09:16
  TRACK 08 AUDIO
    TITLE "3:cjc155_1541"
    INDEX 01 00:10:70
  TRACK 09 AUDIO
    TITLE "2:cjc155_1542"
    INDEX 01 00:12:56
  TRACK 10 AUDIO
    TITLE "3:cjc155_1543"
    INDEX 01 00:14:09
  TRACK 11 AUDIO
    TITLE "2:cjc155_1544"
    INDEX 01 00:15:38
  TRACK 12 AUDIO
    TITLE "3:cjc155_1545"
    INDEX 01 00:17:16
  TRACK 13 AUDIO
    TITLE "2:cjc155_1546"
    INDEX 01 00:18:74
  TRACK 14 AUDIO
    TITLE "3:cjc155_1547"
    INDEX 01 00:21:08
  TRACK 15 AUDIO
    TITLE "2:cjc155_1548"
    INDEX 01 00:23:26
  TRACK 16 AUDIO
    TITLE "3:cjc155_1549"
    INDEX 01 00:25:17
  TRACK 17 AUDIO
    TITLE "2:cjc155_1550"
    INDEX 01 00:27:10
  TRACK 18 AUDIO
    TITLE "3:cjc155_1551"
    INDEX 01 00:28:37
  TRACK 19 AUDIO
    TITLE "2:cjc155_1552"
    INDEX 01 00:29:70
  TRACK 20 AUDIO
    TITLE "3:cjc155_1553"
    INDEX 01 00:30:73
  TRACK 21 AUDIO
    TITLE "2:cjc155_1554"
    INDEX 01 00:32:07
  TRACK 22 AUDIO
    TITLE "3:cjc155_1555"
    INDEX 01 00:33:28
  TRACK 23 AUDIO
    TITLE "2:cjc155_1556"
    INDEX 01 00:34:59
  TRACK 24 AUDIO
    TITLE "3:cjc155_1557"
    INDEX 01 00:36:17
  TRACK 25 AUDIO
    TITLE "2:cjc155_1558"
    INDEX 01 00:37:57
  TRACK 26 AUDIO
    TITLE "3:cjc155_1559"
    INDEX 01 00:39:68
  TRACK 27 AUDIO
    TITLE "2:cjc155_1560"
    INDEX 01 00:42:08
  TRACK 28 AUDIO
    TITLE "3:cjc155_1561"
    INDEX 01 00:43:35
  TRACK 29 AUDIO
    TITLE "2:cjc155_1562"
    INDEX 01 00:44:63
  TRACK 30 AUDIO
    TITLE "3:cjc155_1563"
    INDEX 01 00:46:19
  TRACK 31 AUDIO
    TITLE "2:cjc155_1564"
    INDEX 01 00:47:58
  TRACK 32 AUDIO
    TITLE "3:cjc155_1565"
    INDEX 01 00:49:45
  TRACK 33 AUDIO
    TITLE "2:cjc155_1566"
    INDEX 01 00:51:40
  TRACK 34 AUDIO
    TITLE "3:cjc155_1567"
    INDEX 01 00:52:71
  TRACK 35 AUDIO
    TITLE "2:cjc155_1568"
    INDEX 01 00:54:40
  TRACK 36 AUDIO
    TITLE "3:cjc155_1569"
    INDEX 01 00:55:46
  TRACK 37 AUDIO
    TITLE "2:cjc155_1570"
    INDEX 01 00:56:57
  TRACK 38 AUDIO
    TITLE "3:cjc155_1571"
    INDEX 01 00:58:36
  TRACK 39 AUDIO
    TITLE "2:cjc155_1572"
    INDEX 01 01:00:27
  TRACK 40 AUDIO
    TITLE "3:cjc155_1573"
    INDEX 01 01:02:12
  TRACK 41 AUDIO
    TITLE "2:cjc155_1574"
    INDEX 01 01:04:01
  TRACK 42 AUDIO
    TITLE "3:cjc155_1575"
    INDEX 01 01:05:34
  TRACK 43 AUDIO
    TITLE "2:cjc155_1576"
    INDEX 01 01:07:06
  TRACK 44 AUDIO
    TITLE "3:cjc155_1577"
    INDEX 01 01:08:35
  TRACK 45 AUDIO
    TITLE "2:cjc155_1578"
    INDEX 01 01:10:02
  TRACK 46 AUDIO
    TITLE "3:cjc155_1579"
    INDEX 01 01:12:23
  TRACK 47 AUDIO
    TITLE "2:cjc155_1580"
    INDEX 01 01:14:47
  TRACK 48 AUDIO
    TITLE "3:cjc155_1581"
    INDEX 01 01:16:11
  TRACK 49 AUDIO
    TITLE "2:cjc155_1582"
    INDEX 01 01:17:45
  TRACK 50 AUDIO
    TITLE "3:cjc155_1583"
    INDEX 01 01:19:05
  TRACK 51 AUDIO
    TITLE "2:cjc155_1584"
    INDEX 01 01:20:49
  TRACK 52 AUDIO
    TITLE "3:cjc155_1585"
    INDEX 01 01:22:13
  TRACK 53 AUDIO
    TITLE "2:cjc155_1586"
    INDEX 01 01:23:62
  TRACK 54 AUDIO
    TITLE "3:cjc155_1587"
    INDEX 01 01:25:15
  TRACK 55 AUDIO
    TITLE "2:cjc155_1588"
    INDEX 01 01:26:58
  TRACK 56 AUDIO
    TITLE "3:cjc155_1589"
    INDEX 01 01:28:37
  TRACK 57 AUDIO
    TITLE "2:cjc155_1590"
    INDEX 01 01:30:26
  TRACK 58 AUDIO
    TITLE "3:cjc155_1591"
    INDEX 01 01:32:15
  TRACK 59 AUDIO
    TITLE "2:cjc155_1592"
    INDEX 01 01:34:12
  TRACK 60 AUDIO
    TITLE "3:cjc155_1593"
    INDEX 01 01:35:45
  TRACK 61 AUDIO
    TITLE "2:cjc155_1594"
    INDEX 01 01:37:11
  TRACK 62 AUDIO
    TITLE "3:cjc155_1595"
    INDEX 01 01:38:67
  TRACK 63 AUDIO
    TITLE "2:cjc155_1596"
    INDEX 01 01:40:56
  TRACK 64 AUDIO
    TITLE "3:cjc155_1597"
    INDEX 01 01:41:46
  TRACK 65 AUDIO
    TITLE "2:cjc155_1598"
    INDEX 01 01:42:45
  TRACK 66 AUDIO
    TITLE "3:cjc155_1599"
    INDEX 01 01:45:20
  TRACK 67 AUDIO
    TITLE "2:cjc155_1600"
    INDEX 01 01:47:74
  TRACK 68 AUDIO
    TITLE "3:cjc155_1601"
    INDEX 01 01:49:24
  TRACK 69 AUDIO
    TITLE "2:cjc155_1602"
    INDEX 01 01:50:53
  TRACK 70 AUDIO
    TITLE "3:cjc155_1603"
    INDEX 01 01:52:30
  TRACK 71 AUDIO
    TITLE "2:cjc155_1604"
    INDEX 01 01:54:11
  TRACK 72 AUDIO
    TITLE "3:cjc155_1605"
    INDEX 01 01:56:24
  TRACK 73 AUDIO
    TITLE "2:cjc155_1606"
    INDEX 01 01:58:46
  TRACK 74 AUDIO
    TITLE "3:cjc155_1607"
    INDEX 01 02:00:14
  TRACK 75 AUDIO
    TITLE "2:cjc155_1608"
    INDEX 01 02:01:62
  TRACK 76 AUDIO
    TITLE "3:cjc155_1609"
    INDEX 01 02:03:39
  TRACK 77 AUDIO
    TITLE "2:cjc155_1610"
    INDEX 01 02:05:31
  TRACK 78 AUDIO
    TITLE "3:cjc155_1611"
    INDEX 01 02:06:59
  TRACK 79 AUDIO
    TITLE "2:cjc155_1612"
    INDEX 01 02:08:19
  TRACK 80 AUDIO
    TITLE "3:cjc155_1613"
    INDEX 01 02:10:30
  TRACK 81 AUDIO
    TITLE "2:cjc155_1614"
    INDEX 01 02:12:46
  TRACK 82 AUDIO
    TITLE "3:cjc155_1615"
    INDEX 01 02:14:02
  TRACK 83 AUDIO
    TITLE "2:cjc155_1616"
    INDEX 01 02:15:37
  TRACK 84 AUDIO
    TITLE "3:cjc155_1617"
    INDEX 01 02:17:55
  TRACK 85 AUDIO
    TITLE "2:cjc155_1618"
    INDEX 01 02:20:11
  TRACK 86 AUDIO
    TITLE "3:cjc155_1619"
    INDEX 01 02:21:30
  TRACK 87 AUDIO
    TITLE "2:cjc155_1620"
    INDEX 01 02:22:54
  TRACK 88 AUDIO
    TITLE "3:cjc155_1621"
    INDEX 01 02:25:12
  TRACK 89 AUDIO
    TITLE "2:cjc155_1622"
    INDEX 01 02:27:54
  TRACK 90 AUDIO
    TITLE "3:cjc155_1623"
    INDEX 01 02:30:42
  TRACK 91 AUDIO
    TITLE "2:cjc155_1624"
    INDEX 01 02:33:72
  TRACK 92 AUDIO
    TITLE "3:cjc155_1625"
    INDEX 01 02:35:26
  TRACK 93 AUDIO
    TITLE "2:cjc155_1626"
    INDEX 01 02:36:60
  TRACK 94 AUDIO
    TITLE "3:cjc155_1627"
    INDEX 01 02:38:44
  TRACK 95 AUDIO
    TITLE "2:cjc155_1628"
    INDEX 01 02:40:35
  TRACK 96 AUDIO
    TITLE "3:cjc155_1629"
    INDEX 01 02:41:66
  TRACK 97 AUDIO
    TITLE "2:cjc155_1630"
    INDEX 01 02:43:27
  TRACK 98 AUDIO
    TITLE "3:cjc155_1631"
    INDEX 01 02:44:58
  TRACK 99 AUDIO
    TITLE "2:cjc155_1632"
    INDEX 01 02:46:16
  TRACK 100 AUDIO
    TITLE "3:cjc155_1633"
    INDEX 01 02:47:62
  TRACK 101 AUDIO
    TITLE "2:cjc155_1634"
    INDEX 01 02:49:44
  TRACK 102 AUDIO
    TITLE "3:cjc155_1635"
    INDEX 01 02:52:05
  TRACK 103 AUDIO
    TITLE "2:cjc155_1636"
    INDEX 01 02:54:51
  TRACK 104 AUDIO
    TITLE "3:cjc155_1637"
    INDEX 01 02:55:48
  TRACK 105 AUDIO
    TITLE "2:cjc155_1638"
    INDEX 01 02:56:49
  TRACK 106 AUDIO
    TITLE "3:cjc155_1639"
    INDEX 01 02:58:33
  TRACK 107 AUDIO
    TITLE "2:cjc155_1640"
    INDEX 01 03:00:18
  TRACK 108 AUDIO
    TITLE "3:cjc155_1641"
    INDEX 01 03:02:01
  TRACK 109 AUDIO
    TITLE "2:cjc155_1642"
    INDEX 01 03:03:69
  TRACK 110 AUDIO
    TITLE "3:cjc155_1643"
    INDEX 01 03:05:45
  TRACK 111 AUDIO
    TITLE "2:cjc155_1644"
    INDEX 01 03:07:20
  TRACK 112 AUDIO
    TITLE "3:cjc155_1645"
    INDEX 01 03:09:66
  TRACK 113 AUDIO
    TITLE "2:cjc155_1646"
    INDEX 01 03:12:45
  TRACK 114 AUDIO
    TITLE "3:cjc155_1647"
    INDEX 01 03:13:69
  TRACK 115 AUDIO
    TITLE "2:cjc155_1648"
    INDEX 01 03:15:31
  TRACK 116 AUDIO
    TITLE "3:cjc155_1649"
    INDEX 01 03:16:38
  TRACK 117 AUDIO
    TITLE "2:cjc155_1650"
    INDEX 01 03:17:54
  TRACK 118 AUDIO
    TITLE "3:cjc155_1651"
    INDEX 01 03:20:24
  TRACK 119 AUDIO
    TITLE "2:cjc155_1652"
    INDEX 01 03:23:03
  TRACK 120 AUDIO
    TITLE "3:cjc155_1653"
    INDEX 01 03:25:14
  TRACK 121 AUDIO
    TITLE "2:cjc155_1654"
    INDEX 01 03:27:34
  TRACK 122 AUDIO
    TITLE "3:cjc155_1655"
    INDEX 01 03:28:71
  TRACK 123 AUDIO
    TITLE "2:cjc155_1656"
    INDEX 01 03:30:39
  TRACK 124 AUDIO
    TITLE "3:cjc155_1657"
    INDEX 01 03:32:32
  TRACK 125 AUDIO
    TITLE "2:cjc155_1658"
    INDEX 01 03:34:30
  TRACK 126 AUDIO
    TITLE "3:cjc155_1659"
    INDEX 01 03:35:69
  TRACK 127 AUDIO
    TITLE "2:cjc155_1660"
    INDEX 01 03:37:45
  TRACK 128 AUDIO
    TITLE "3:cjc155_1661"
    INDEX 01 03:39:04
  TRACK 129 AUDIO
    TITLE "2:cjc155_1662"
    INDEX 01 03:40:49
  TRACK 130 AUDIO
    TITLE "3:cjc155_1663"
    INDEX 01 03:42:26
  TRACK 131 AUDIO
    TITLE "2:cjc155_1664"
    INDEX 01 03:44:09
  TRACK 132 AUDIO
    TITLE "3:cjc155_1665"
    INDEX 01 03:45:32
  TRACK 133 AUDIO
    TITLE "2:cjc155_1666"
    INDEX 01 03:46:61
  TRACK 134 AUDIO
    TITLE "3:cjc155_1667"
    INDEX 01 03:48:54
  TRACK 135 AUDIO
    TITLE "2:cjc155_1668"
    INDEX 01 03:50:55
  TRACK 136 AUDIO
    TITLE "3:cjc155_1669"
    INDEX 01 03:52:64
  TRACK 137 AUDIO
    TITLE "2:cjc155_1670"
    INDEX 01 03:55:07
  TRACK 138 AUDIO
    TITLE "3:cjc155_1671"
    INDEX 01 03:56:69
  TRACK 139 AUDIO
    TITLE "2:cjc155_1672"
    INDEX 01 03:58:58
  TRACK 140 AUDIO
    TITLE "3:cjc155_1673"
    INDEX 01 03:59:72
  TRACK 141 AUDIO
    TITLE "2:cjc155_1674"
    INDEX 01 04:01:20
  TRACK 142 AUDIO
    TITLE "3:cjc155_1675"
    INDEX 01 04:03:56
  TRACK 143 AUDIO
    TITLE "2:cjc155_1676"
    INDEX 01 04:06:40
  TRACK 144 AUDIO
    TITLE "3:cjc155_1677"
    INDEX 01 04:07:57
  TRACK 145 AUDIO
    TITLE "2:cjc155_1678"
    INDEX 01 04:09:09
  TRACK 146 AUDIO
    TITLE "3:cjc155_1679"
    INDEX 01 04:10:18
  TRACK 147 AUDIO
    TITLE "2:cjc155_1680"
    INDEX 01 04:11:34
  TRACK 148 AUDIO
    TITLE "3:cjc155_1681"
    INDEX 01 04:13:21
  TRACK 149 AUDIO
    TITLE "2:cjc155_1682"
    INDEX 01 04:15:16
  TRACK 150 AUDIO
    TITLE "3:cjc155_1683"
    INDEX 01 04:18:22
  TRACK 151 AUDIO
    TITLE "2:cjc155_1684"
    INDEX 01 04:21:40
  TRACK 152 AUDIO
    TITLE "3:cjc155_1685"
    INDEX 01 04:23:19
  TRACK 153 AUDIO
    TITLE "2:cjc155_1686"
    INDEX 01 04:25:06
  TRACK 154 AUDIO
    TITLE "3:cjc155_1687"
    INDEX 01 04:26:39
  TRACK 155 AUDIO
    TITLE "2:cjc155_1688"
    INDEX 01 04:28:01
  TRACK 156 AUDIO
    TITLE "3:cjc155_1689"
    INDEX 01 04:29:63
  TRACK 157 AUDIO
    TITLE "2:cjc155_1690"
    INDEX 01 04:31:52
  TRACK 158 AUDIO
    TITLE "3:cjc155_1691"
    INDEX 01 04:33:16
  TRACK 159 AUDIO
    TITLE "2:cjc155_1692"
    INDEX 01 04:34:62
  TRACK 160 AUDIO
    TITLE "3:cjc155_1693"
    INDEX 01 04:36:73
  TRACK 161 AUDIO
    TITLE "2:cjc155_1694"
    INDEX 01 04:39:14
  TRACK 162 AUDIO
    TITLE "3:cjc155_1695"
    INDEX 01 04:40:31
  TRACK 163 AUDIO
    TITLE "2:cjc155_1696"
    INDEX 01 04:41:56
  TRACK 164 AUDIO
    TITLE "3:cjc155_1697"
    INDEX 01 04:42:66
  TRACK 165 AUDIO
    TITLE "2:cjc155_1698"
    INDEX 01 04:44:06
  TRACK 166 AUDIO
    TITLE "3:cjc155_1699"
    INDEX 01 04:46:26
  TRACK 167 AUDIO
    TITLE "2:cjc155_1700"
    INDEX 01 04:48:60
  TRACK 168 AUDIO
    TITLE "3:cjc155_1701"
    INDEX 01 04:50:49
  TRACK 169 AUDIO
    TITLE "2:cjc155_1702"
    INDEX 01 04:52:50
  TRACK 170 AUDIO
    TITLE "3:cjc155_1703"
    INDEX 01 04:54:31
  TRACK 171 AUDIO
    TITLE "2:cjc155_1704"
    INDEX 01 04:56:23
  TRACK 172 AUDIO
    TITLE "3:cjc155_1705"
    INDEX 01 04:58:06
  TRACK 173 AUDIO
    TITLE "2:cjc155_1706"
    INDEX 01 04:59:74
  TRACK 174 AUDIO
    TITLE "3:cjc155_1707"
    INDEX 01 05:01:20
  TRACK 175 AUDIO
    TITLE "2:cjc155_1708"
    INDEX 01 05:02:53
  TRACK 176 AUDIO
    TITLE "3:cjc155_1709"
    INDEX 01 05:04:06
  TRACK 177 AUDIO
    TITLE "2:cjc155_1710"
    INDEX 01 05:05:45
  TRACK 178 AUDIO
    TITLE "3:cjc155_1711"
    INDEX 01 05:07:36
  TRACK 179 AUDIO
    TITLE "2:cjc155_1712"
    INDEX 01 05:09:35
  TRACK 180 AUDIO
    TITLE "3:cjc155_1713"
    INDEX 01 05:11:71
  TRACK 181 AUDIO
    TITLE "2:cjc155_1714"
    INDEX 01 05:14:36
  TRACK 182 AUDIO
    TITLE "3:cjc155_1715"
    INDEX 01 05:16:12
  TRACK 183 AUDIO
    TITLE "2:cjc155_1716"
    INDEX 01 05:17:70
  TRACK 184 AUDIO
    TITLE "3:cjc155_1717"
    INDEX 01 05:19:29
  TRACK 185 AUDIO
    TITLE "2:cjc155_1718"
    INDEX 01 05:20:74
  TRACK 186 AUDIO
    TITLE "3:cjc155_1719"
    INDEX 01 05:23:15
  TRACK 187 AUDIO
    TITLE "2:cjc155_1720"
    INDEX 01 05:25:50
  TRACK 188 AUDIO
    TITLE "3:cjc155_1721"
    INDEX 01 05:26:47
  TRACK 189 AUDIO
    TITLE "2:cjc155_1722"
    INDEX 01 05:27:60
  TRACK 190 AUDIO
    TITLE "3:cjc155_1723"
    INDEX 01 05:30:18
  TRACK 191 AUDIO
    TITLE "2:cjc155_1724"
    INDEX 01 05:32:48
  TRACK 192 AUDIO
    TITLE "3:cjc155_1725"
    INDEX 01 05:34:07
  TRACK 193 AUDIO
    TITLE "2:cjc155_1726"
    INDEX 01 05:35:50
  TRACK 194 AUDIO
    TITLE "3:cjc155_1727"
    INDEX 01 05:37:25
  TRACK 195 AUDIO
    TITLE "2:cjc155_1728"
    INDEX 01 05:39:09
  TRACK 196 AUDIO
    TITLE "3:cjc155_1729"
    INDEX 01 05:41:08
  TRACK 197 AUDIO
    TITLE "2:cjc155_1730"
    INDEX 01 05:43:10
  TRACK 198 AUDIO
    TITLE "3:cjc155_1731"
    INDEX 01 05:46:05
  TRACK 199 AUDIO
    TITLE "2:cjc155_1732"
    INDEX 01 05:49:07
  TRACK 200 AUDIO
    TITLE "3:cjc155_1733"
    INDEX 01 05:50:20
  TRACK 201 AUDIO
    TITLE "2:cjc155_1734"
    INDEX 01 05:51:35
  TRACK 202 AUDIO
    TITLE "3:cjc155_1735"
    INDEX 01 05:53:28
  TRACK 203 AUDIO
    TITLE "2:cjc155_1736"
    INDEX 01 05:55:25
  TRACK 204 AUDIO
    TITLE "3:cjc155_1737"
    INDEX 01 05:57:24
  TRACK 205 AUDIO
    TITLE "2:cjc155_1738"
    INDEX 01 05:59:29
  TRACK 206 AUDIO
    TITLE "3:cjc155_1739"
    INDEX 01 06:00:70
  TRACK 207 AUDIO
    TITLE "2:cjc155_1740"
    INDEX 01 06:02:43
  TRACK 208 AUDIO
    TITLE "3:cjc155_1741"
    INDEX 01 06:04:05
  TRACK 209 AUDIO
    TITLE "2:cjc155_1742"
    INDEX 01 06:05:51
  TRACK 210 AUDIO
    TITLE "3:cjc155_1743"
    INDEX 01 06:08:24
  TRACK 211 AUDIO
    TITLE "2:cjc155_1744"
    INDEX 01 06:11:03
  TRACK 212 AUDIO
    TITLE "3:cjc155_1745"
    INDEX 01 06:12:45
  TRACK 213 AUDIO
    TITLE "2:cjc155_1746"
    INDEX 01 06:14:25
  TRACK 214 AUDIO
    TITLE "3:cjc155_1747"
    INDEX 01 06:16:49
  TRACK 215 AUDIO
    TITLE "2:cjc155_1748"
    INDEX 01 06:19:04
  TRACK 216 AUDIO
    TITLE "3:cjc155_1749"
    INDEX 01 06:20:60
  TRACK 217 AUDIO
    TITLE "2:cjc155_1750"
    INDEX 01 06:22:52
  TRACK 218 AUDIO
    TITLE "3:cjc155_1751"
    INDEX 01 06:25:32
  TRACK 219 AUDIO
    TITLE "2:cjc155_1752"
    INDEX 01 06:28:35
  TRACK 220 AUDIO
    TITLE "3:cjc155_1753"
    INDEX 01 06:30:39
  TRACK 221 AUDIO
    TITLE "2:cjc155_1754"
    INDEX 01 06:32:54
  TRACK 222 AUDIO
    TITLE "3:cjc155_1755"
    INDEX 01 06:33:53
  TRACK 223 AUDIO
    TITLE "2:cjc155_1756"
    INDEX 01 06:34:61
  TRACK 224 AUDIO
    TITLE "3:cjc155_1757"
    INDEX 01 06:37:28
  TRACK 225 AUDIO
    TITLE "2:cjc155_1758"
    INDEX 01 06:40:02
  TRACK 226 AUDIO
    TITLE "3:cjc155_1759"
    INDEX 01 06:41:51
  TRACK 227 AUDIO
    TITLE "2:cjc155_1760"
    INDEX 01 06:43:30
  TRACK 228 AUDIO
    TITLE "3:cjc155_1761"
    INDEX 01 06:45:60
  TRACK 229 AUDIO
    TITLE "2:cjc155_1762"
    INDEX 01 06:48:24
  TRACK 230 AUDIO
    TITLE "3:cjc155_1763"
    INDEX 01 06:50:24
  TRACK 231 AUDIO
    TITLE "2:cjc155_1764"
    INDEX 01 06:52:35
  TRACK 232 AUDIO
    TITLE "3:cjc155_1765"
    INDEX 01 06:54:22
  TRACK 233 AUDIO
    TITLE "2:cjc155_1766"
    INDEX 01 06:56:13
  TRACK 234 AUDIO
    TITLE "3:cjc155_1767"
    INDEX 01 06:58:00
  TRACK 235 AUDIO
    TITLE "0:"
    INDEX 01 06:59:68
